<svg width="22" height="21" viewBox="0 0 22 21" fill="none" xmlns="http://www.w3.org/2000/svg">
<path d="M11.2501 1C11.2501 0.585786 10.9144 0.25 10.5001 0.25C10.0859 0.25 9.75015 0.585786 9.75015 1L11.2501 1ZM9.75015 12C9.75015 12.4142 10.0859 12.75 10.5002 12.75C10.9144 12.75 11.2502 12.4142 11.2502 12H9.75015ZM13.3648 12V11.25V12ZM14.9496 15.22L14.3553 14.7625L14.9496 15.22ZM6.05071 15.22L6.64501 14.7625L6.05071 15.22ZM7.63552 12V12.75V12ZM8.91535 18.9413L8.32105 19.3987V19.3988L8.91535 18.9413ZM12.085 18.9413L12.6793 19.3988L12.085 18.9413ZM9.75015 1L9.75015 12H11.2502L11.2501 1L9.75015 1ZM9.50966 18.4838L6.64501 14.7625L5.4564 15.6775L8.32105 19.3987L9.50966 18.4838ZM7.63552 12.75H13.3648V11.25H7.63552V12.75ZM14.3553 14.7625L11.4907 18.4838L12.6793 19.3988L15.5439 15.6775L14.3553 14.7625ZM13.3648 12.75C14.4021 12.75 14.9881 13.9405 14.3553 14.7625L15.5439 15.6775C16.936 13.8692 15.6469 11.25 13.3648 11.25V12.75ZM6.64501 14.7625C6.01227 13.9405 6.59822 12.75 7.63552 12.75V11.25C5.35346 11.25 4.06436 13.8692 5.4564 15.6775L6.64501 14.7625ZM8.32105 19.3988C9.42188 20.8288 11.5784 20.8288 12.6793 19.3988L11.4907 18.4838C10.9903 19.1338 10.01 19.1338 9.50966 18.4838L8.32105 19.3988Z" fill="#FF4D00"/>
</svg>
