<svg width="21" height="22" viewBox="0 0 21 22" fill="none" xmlns="http://www.w3.org/2000/svg">
<path d="M1 10.7501C0.585786 10.7501 0.25 11.0859 0.25 11.5001C0.25 11.9143 0.585786 12.2501 1 12.2501L1 10.7501ZM12 12.2501C12.4142 12.2501 12.75 11.9143 12.75 11.5001C12.75 11.0859 12.4142 10.7501 12 10.7501L12 12.2501ZM12 8.63544L11.25 8.63544L12 8.63544ZM15.22 7.05063L14.7625 7.64493L15.22 7.05063ZM15.22 15.9495L14.7625 15.3552L15.22 15.9495ZM12 14.3647L12.75 14.3647L12 14.3647ZM18.9413 13.0849L19.3987 13.6792L19.3988 13.6792L18.9413 13.0849ZM18.9413 9.91527L19.3987 9.32096L18.9413 9.91527ZM1 12.2501L12 12.2501L12 10.7501L1 10.7501L1 12.2501ZM18.4838 12.4906L14.7625 15.3552L15.6775 16.5438L19.3987 13.6792L18.4838 12.4906ZM12.75 14.3647L12.75 8.63544L11.25 8.63544L11.25 14.3647L12.75 14.3647ZM14.7625 7.64493L18.4838 10.5096L19.3987 9.32096L15.6775 6.45632L14.7625 7.64493ZM12.75 8.63544C12.75 7.59814 13.9405 7.01218 14.7625 7.64493L15.6775 6.45632C13.8692 5.06428 11.25 6.35338 11.25 8.63544L12.75 8.63544ZM14.7625 15.3552C13.9405 15.988 12.75 15.402 12.75 14.3647L11.25 14.3647C11.25 16.6468 13.8692 17.9359 15.6775 16.5438L14.7625 15.3552ZM19.3988 13.6792C20.8288 12.5784 20.8288 10.4218 19.3987 9.32096L18.4838 10.5096C19.1338 11.01 19.1338 11.9902 18.4838 12.4906L19.3988 13.6792Z" fill="#FF4D00"/>
</svg>
