<svg width="21" height="22" viewBox="0 0 21 22" fill="none" xmlns="http://www.w3.org/2000/svg">
<path d="M20 10.7501C20.4142 10.7501 20.75 11.0859 20.75 11.5001C20.75 11.9143 20.4142 12.2501 20 12.2501L20 10.7501ZM9 12.2501C8.58579 12.2501 8.25 11.9143 8.25 11.5001C8.25 11.0859 8.58579 10.7501 9 10.7501L9 12.2501ZM9.00002 8.63544L9.75002 8.63544L9.00002 8.63544ZM5.78003 7.05063L6.23752 7.64493L5.78003 7.05063ZM5.78003 15.9495L6.23752 15.3552L5.78003 15.9495ZM9.00002 14.3647L8.25002 14.3647L9.00002 14.3647ZM2.05875 13.0849L1.60125 13.6792L1.60125 13.6792L2.05875 13.0849ZM2.05875 9.91527L1.60125 9.32096L2.05875 9.91527ZM20 12.2501L9 12.2501L9 10.7501L20 10.7501L20 12.2501ZM2.51624 12.4906L6.23752 15.3552L5.32253 16.5438L1.60125 13.6792L2.51624 12.4906ZM8.25002 14.3647L8.25002 8.63544L9.75002 8.63544L9.75002 14.3647L8.25002 14.3647ZM6.23752 7.64493L2.51624 10.5096L1.60125 9.32096L5.32253 6.45632L6.23752 7.64493ZM8.25002 8.63544C8.25002 7.59814 7.05949 7.01218 6.23752 7.64493L5.32253 6.45632C7.13085 5.06428 9.75002 6.35338 9.75002 8.63544L8.25002 8.63544ZM6.23752 15.3552C7.05949 15.988 8.25002 15.402 8.25002 14.3647L9.75002 14.3647C9.75002 16.6468 7.13085 17.9359 5.32253 16.5438L6.23752 15.3552ZM1.60125 13.6792C0.17123 12.5784 0.171231 10.4218 1.60125 9.32096L2.51624 10.5096C1.86623 11.01 1.86623 11.9902 2.51624 12.4906L1.60125 13.6792Z" fill="#FF4D00"/>
</svg>
