<svg width="24" height="25" viewBox="0 0 24 25" fill="none" xmlns="http://www.w3.org/2000/svg">
<path fill-rule="evenodd" clip-rule="evenodd" d="M17.4635 2.92671C16.3214 2.80296 14.8818 2.80297 13.0452 2.80298H10.9548C9.11821 2.80297 7.67861 2.80296 6.53648 2.92671C5.37094 3.05298 4.42656 3.3153 3.62024 3.90113C3.13209 4.25579 2.70281 4.68507 2.34815 5.17321C2.18647 5.39575 2.04801 5.63079 1.92987 5.88095C1.56808 6.64702 1.40671 7.53535 1.32806 8.59466C1.25 9.64621 1.25 10.9352 1.25 12.5245V12.5982C1.24999 14.4348 1.24999 15.8744 1.37373 17.0165C1.50001 18.182 1.76232 19.1264 2.34815 19.9327C2.70281 20.4209 3.13209 20.8502 3.62024 21.2048C4.42656 21.7907 5.37094 22.053 6.53648 22.1793C7.67859 22.303 9.11817 22.303 10.9547 22.303H13.0453C14.8818 22.303 16.3214 22.303 17.4635 22.1793C18.6291 22.053 19.5734 21.7907 20.3798 21.2048C20.8679 20.8502 21.2972 20.4209 21.6518 19.9327C22.2377 19.1264 22.5 18.182 22.6263 17.0165C22.75 15.8744 22.75 14.4348 22.75 12.5983V12.5239C22.75 10.9237 22.75 9.62784 22.6702 8.57202C22.5899 7.50804 22.4248 6.61677 22.0546 5.84844C21.9399 5.61032 21.8065 5.38602 21.6518 5.17321C21.2972 4.68507 20.8679 4.25579 20.3798 3.90113C19.5734 3.3153 18.6291 3.05298 17.4635 2.92671ZM4.50191 5.11466C5.00992 4.74557 5.66013 4.53043 6.69804 4.41798C7.74999 4.30401 9.10843 4.30298 11 4.30298H13C14.8916 4.30298 16.25 4.30401 17.302 4.41798C18.3399 4.53043 18.9901 4.74557 19.4981 5.11466C19.8587 5.37667 20.1759 5.69378 20.4379 6.05437L18.5407 7.95158C16.8591 9.63324 15.6501 10.84 14.6072 11.6356C13.5817 12.4181 12.8056 12.7319 12 12.7319C11.1944 12.7319 10.4183 12.4181 9.39275 11.6356C8.34994 10.84 7.14092 9.63324 5.45926 7.95158L3.56205 6.05437C3.82412 5.69379 4.14128 5.37667 4.50191 5.11466ZM21.0373 7.57635C21.0977 7.89658 21.1425 8.26189 21.1745 8.68502C21.2495 9.67791 21.25 10.9178 21.25 12.553C21.25 14.4446 21.249 15.803 21.135 16.8549C21.0225 17.8928 20.8074 18.5431 20.4383 19.0511C20.1762 19.4119 19.8589 19.7292 19.4981 19.9913C18.9901 20.3604 18.3399 20.5755 17.302 20.688C16.25 20.8019 14.8916 20.803 13 20.803H11C9.10843 20.803 7.74999 20.8019 6.69804 20.688C5.66013 20.5755 5.00992 20.3604 4.50191 19.9913C4.14111 19.7292 3.82382 19.4119 3.56168 19.0511C3.19259 18.5431 2.97745 17.8928 2.865 16.8549C2.75103 15.803 2.75 14.4446 2.75 12.553C2.75 10.9294 2.75047 9.69542 2.82395 8.70572C2.85601 8.27382 2.90131 7.90183 2.96271 7.57635L4.43917 9.05281C6.07144 10.6851 7.35062 11.9643 8.48288 12.8282C9.64181 13.7124 10.7345 14.2319 12 14.2319C13.2655 14.2319 14.3582 13.7124 15.5171 12.8282C16.6494 11.9643 17.9285 10.6851 19.5608 9.05283L21.0373 7.57635Z" fill="#2B2A28"/>
</svg>
