<svg width="24" height="25" viewBox="0 0 24 25" fill="none" xmlns="http://www.w3.org/2000/svg">
<path fill-rule="evenodd" clip-rule="evenodd" d="M8.11183 3.52803C7.05974 2.5613 5.44259 2.5613 4.3905 3.52803C4.34741 3.56762 4.30142 3.61363 4.24169 3.67337L3.34419 4.57086C2.44108 5.47398 2.06196 6.7759 2.33902 8.02268C3.91099 15.0965 9.43553 20.6211 16.5094 22.193C17.7562 22.4701 19.0581 22.091 19.9612 21.1879L20.8586 20.2905C20.9184 20.2307 20.9644 20.1847 21.004 20.1416C21.9708 19.0895 21.9708 17.4723 21.004 16.4202C20.9644 16.3771 20.9184 16.3311 20.8586 16.2713L19.3894 14.8021C18.3693 13.782 16.8287 13.4902 15.5063 14.0667C14.7492 14.3967 13.8672 14.2297 13.2832 13.6457L10.8864 11.2489C10.3024 10.6649 10.1354 9.78291 10.4654 9.02581C11.0418 7.70335 10.7501 6.16282 9.72999 5.14272L8.26066 3.67338C8.20093 3.61364 8.15492 3.56762 8.11183 3.52803ZM5.40541 4.63255C5.88363 4.19312 6.6187 4.19312 7.09692 4.63255C7.11343 4.64771 7.13507 4.66911 7.21114 4.74518L8.66933 6.20338C9.25333 6.78738 9.42036 7.66933 9.09034 8.42643C8.51388 9.74889 8.80563 11.2894 9.82573 12.3095L12.2225 14.7063C13.2426 15.7264 14.7832 16.0182 16.1056 15.4417C16.8627 15.1117 17.7447 15.2787 18.3287 15.8627L19.7869 17.3209C19.8629 17.397 19.8843 17.4186 19.8995 17.4351C20.3389 17.9134 20.3389 18.6484 19.8995 19.1267C19.8843 19.1432 19.8629 19.1648 19.7869 19.2409L18.9005 20.1272C18.3601 20.6677 17.5809 20.8946 16.8348 20.7288C10.3295 19.2831 5.24893 14.2026 3.8033 7.69728C3.6375 6.95114 3.86438 6.172 4.40485 5.63152L5.2912 4.74518C5.36726 4.66911 5.3889 4.64771 5.40541 4.63255Z" fill="#2B2A28"/>
<path d="M14.3032 5.78827C14.3689 5.78827 14.3994 5.78833 14.4248 5.7887C16.7244 5.82163 18.5806 7.67782 18.6135 9.9774C18.6139 10.0065 18.614 10.0422 18.614 10.1294V10.6951C18.614 11.1093 18.9497 11.4451 19.364 11.4451C19.7782 11.4451 20.114 11.1093 20.114 10.6951V10.1222C20.114 10.0445 20.114 9.99717 20.1134 9.95592C20.0688 6.84473 17.5575 4.33341 14.4463 4.28885C14.405 4.28826 14.3578 4.28826 14.28 4.28826H13.7071C13.2929 4.28826 12.9571 4.62405 12.9571 5.03826C12.9571 5.45248 13.2929 5.78826 13.7071 5.78826H14.2728C14.2837 5.78826 14.2938 5.78826 14.3032 5.78827Z" fill="#2B2A28"/>
</svg>
