<svg width="24" height="25" viewBox="0 0 24 25" fill="none" xmlns="http://www.w3.org/2000/svg">
<path d="M5.96852 2.38866C6.29197 2.1299 6.34441 1.65793 6.08565 1.33448C5.82689 1.01104 5.35493 0.958597 5.03148 1.21735L2.53148 3.21735C2.20803 3.47611 2.15559 3.94808 2.41435 4.27153C2.67311 4.59497 3.14507 4.64741 3.46852 4.38866L5.96852 2.38866Z" fill="#2D264B"/>
<path d="M18.9685 1.21735C18.6451 0.958597 18.1731 1.01104 17.9143 1.33448C17.6556 1.65793 17.708 2.1299 18.0315 2.38866L20.5315 4.38866C20.8549 4.64741 21.3269 4.59497 21.5857 4.27153C21.8444 3.94808 21.792 3.47611 21.4685 3.21735L18.9685 1.21735Z" fill="#2D264B"/>
<path d="M12.75 8.55301C12.75 8.13879 12.4142 7.80301 12 7.80301C11.5858 7.80301 11.25 8.13879 11.25 8.55301L11.25 12.053C11.25 13.2956 12.2574 14.303 13.5 14.303H15C15.4142 14.303 15.75 13.9672 15.75 13.553C15.75 13.1388 15.4142 12.803 15 12.803H13.5C13.0858 12.803 12.75 12.4672 12.75 12.053L12.75 8.55301Z" fill="#2D264B"/>
<path fill-rule="evenodd" clip-rule="evenodd" d="M12 1.80301C6.06294 1.80301 1.25 6.61594 1.25 12.553C1.25 18.4901 6.06294 23.303 12 23.303C17.9371 23.303 22.75 18.4901 22.75 12.553C22.75 6.61594 17.9371 1.80301 12 1.80301ZM2.75 12.553C2.75 7.44437 6.89137 3.30301 12 3.30301C17.1086 3.30301 21.25 7.44437 21.25 12.553C21.25 17.6616 17.1086 21.803 12 21.803C6.89137 21.803 2.75 17.6616 2.75 12.553Z" fill="#2D264B"/>
</svg>
