<svg width="28" height="28" viewBox="0 0 28 28" fill="none" xmlns="http://www.w3.org/2000/svg">
<path d="M27.3619 6.43672C27.5542 5.75312 27.3619 5.25 26.4366 5.25H23.3751C22.5954 5.25 22.2367 5.68203 22.0444 6.16328C22.0444 6.16328 20.485 10.1609 18.2811 12.7531C17.569 13.5023 17.2415 13.743 16.8517 13.743C16.6593 13.743 16.3631 13.5023 16.3631 12.8187V6.43672C16.3631 5.61641 16.1447 5.25 15.5002 5.25H10.6869C10.1983 5.25 9.90724 5.63281 9.90724 5.98828C9.90724 6.76484 11.0092 6.94531 11.1236 9.13281V13.8797C11.1236 14.9188 10.9468 15.1102 10.557 15.1102C9.51739 15.1102 6.99121 11.0961 5.4942 6.50234C5.19272 5.61094 4.89644 5.25 4.11156 5.25H1.04998C0.176729 5.25 0 5.68203 0 6.16328C0 7.01641 1.03958 11.2547 4.83927 16.8547C7.37065 20.6773 10.9364 22.75 14.1799 22.75C16.1292 22.75 16.3683 22.2906 16.3683 21.4977C16.3683 17.8445 16.1915 17.5 17.1687 17.5C17.621 17.5 18.4006 17.7406 20.2199 19.5836C22.2991 21.7711 22.6421 22.75 23.8065 22.75H26.8681C27.7413 22.75 28.1831 22.2906 27.9284 21.3828C27.3463 19.4742 23.4114 15.5477 23.2347 15.2852C22.7825 14.6727 22.9124 14.3992 23.2347 13.8523C23.2399 13.8469 26.9772 8.3125 27.3619 6.43672Z" fill="#2B2A28"/>
</svg>
