<svg width="28" height="29" viewBox="0 0 28 29" fill="none" xmlns="http://www.w3.org/2000/svg">
<path fill-rule="evenodd" clip-rule="evenodd" d="M13.9945 2.5C17.2375 2.5 20.2891 3.76328 22.5805 6.06016C24.8719 8.35703 26.25 11.4031 26.25 14.6461C26.25 21.3398 20.6828 26.7867 13.9945 26.7867H13.9891C11.9547 26.7867 9.95859 26.2781 8.18672 25.3102L1.75 27L3.47266 20.7109C2.41172 18.868 1.85391 16.7789 1.85391 14.6406C1.85391 7.94688 7.30078 2.5 13.9945 2.5ZM19.5289 17.1833C19.2281 17.0301 17.7352 16.2973 17.4563 16.1989C17.1773 16.095 16.975 16.0458 16.7727 16.352C16.5703 16.6583 15.9906 17.3364 15.8102 17.5442C15.6352 17.7465 15.4547 17.7739 15.1539 17.6208C13.3711 16.7293 12.2008 16.0293 11.025 14.0114C10.8519 13.7138 10.9672 13.5932 11.2031 13.3464C11.3921 13.1487 11.6586 12.87 11.9164 12.3543C12.0148 12.152 11.9656 11.977 11.8891 11.8239C11.8351 11.716 11.5178 10.9429 11.247 10.2832C11.1335 10.0067 11.0282 9.75006 10.9539 9.57075C10.7377 9.05177 10.5172 9.05215 10.3407 9.05246C10.3164 9.05251 10.2929 9.05255 10.2703 9.05122C10.0953 9.04028 9.89297 9.04028 9.69062 9.04028C9.48828 9.04028 9.16016 9.11685 8.88125 9.41763C8.8629 9.43777 8.84238 9.45977 8.82004 9.4837C8.50284 9.82358 7.82031 10.5549 7.82031 11.9497C7.82031 13.4039 8.85283 14.8114 9.04289 15.0705C9.04795 15.0774 9.05242 15.0835 9.05625 15.0887C9.06678 15.1026 9.08599 15.1301 9.11361 15.1696C9.48753 15.7042 11.4041 18.4442 14.2406 19.6715C16.1656 20.5028 16.9203 20.5739 17.8828 20.4317C18.468 20.3442 19.6766 19.6989 19.9281 18.9879C20.1797 18.277 20.1797 17.67 20.1031 17.5442C20.0437 17.4299 19.8924 17.3576 19.6686 17.2506C19.6248 17.2297 19.5782 17.2074 19.5289 17.1833Z" fill="#2B2A28"/>
</svg>
