<svg width="34" height="34" viewBox="0 0 34 34" fill="none" xmlns="http://www.w3.org/2000/svg">
<g clip-path="url(#clip0_2164_12595)">
<path fill-rule="evenodd" clip-rule="evenodd" d="M17 0.00012207C26.3888 0.00012207 34 7.61127 34 17.0001C34 26.389 26.3888 34.0001 17 34.0001C7.61115 34.0001 0 26.389 0 17.0001C0 7.61127 7.61115 0.00012207 17 0.00012207ZM13.3323 24.096C13.3323 23.1798 12.9755 22.3183 12.3274 21.6709C11.6799 21.0227 10.8182 20.6659 9.90223 20.6659C8.98576 20.6659 8.12407 21.0227 7.47661 21.6709C6.82849 22.3183 6.47169 23.1798 6.47169 24.096C6.47169 25.0125 6.82849 25.8739 7.47661 26.5216C8.12407 27.1698 8.98576 27.5266 9.90223 27.5266C10.8182 27.5266 11.6799 27.1698 12.3274 26.5216C12.9755 25.874 13.3323 25.0125 13.3323 24.096ZM25.9449 14.5015C26.851 17.7368 25.9624 21.1679 23.5658 23.5643C21.1841 25.9462 17.7367 26.8438 14.5048 25.9431C14.3112 26.4252 14.0427 26.8737 13.7092 27.272C13.7291 27.2803 13.7494 27.288 13.7705 27.2944C14.8383 27.6286 15.9295 27.7911 17.0108 27.7911C19.8264 27.7911 22.5709 26.6866 24.6295 24.628C26.0812 23.1763 27.0839 21.3544 27.529 19.3593C27.9479 17.4856 27.8607 15.5342 27.2764 13.7054C26.8775 14.0395 26.4281 14.3082 25.9449 14.5015ZM10.4339 10.4325C12.8276 8.03853 16.2603 7.14882 19.4949 8.05314C19.6889 7.57038 19.958 7.12131 20.2922 6.72256C18.4572 6.1363 16.499 6.05033 14.6197 6.47354C12.6325 6.92098 10.8173 7.92212 9.37025 9.36878C7.93203 10.807 6.93381 12.6104 6.48251 14.5839C6.05063 16.4736 6.13395 18.4446 6.72377 20.2911C7.12257 19.9568 7.57173 19.6877 8.05461 19.4937C7.15155 16.2598 8.04372 12.8227 10.4339 10.4325ZM21.6721 12.3261C23.0092 13.6637 25.1858 13.6637 26.5231 12.3261C27.8607 10.989 27.8607 8.81243 26.5231 7.47514C25.8541 6.80636 24.9759 6.47174 24.0973 6.47174C23.2189 6.47174 22.3405 6.80636 21.6721 7.47514C21.024 8.12287 20.6672 8.98429 20.6672 9.90096C20.6672 10.817 21.024 11.6784 21.6721 12.3261Z" fill="white"/>
</g>
<defs>
<clipPath id="clip0_2164_12595">
<rect width="34" height="34" fill="white"/>
</clipPath>
</defs>
</svg>
