<svg width="33" height="32" viewBox="0 0 33 32" fill="none" xmlns="http://www.w3.org/2000/svg">
<path fill-rule="evenodd" clip-rule="evenodd" d="M19.1218 17.698L23.408 19.9535H29.028C29.1783 19.9534 29.3271 19.9236 29.4658 19.8659C29.6045 19.8081 29.7305 19.7235 29.8364 19.617C30.3037 19.1497 30.3107 18.1395 29.8364 17.6652C29.7304 17.5587 29.6045 17.4741 29.4658 17.4163C29.327 17.3586 29.1783 17.3288 29.028 17.3287H19.3438L19.1218 17.698ZM17.6172 20.1967L27.5015 26.9492C27.6281 27.0335 27.7712 27.0898 27.9213 27.1141C28.0715 27.1385 28.2251 27.1304 28.3718 27.0904C28.6625 27.0153 28.9162 26.8376 29.086 26.59C29.339 26.2155 29.5723 25.8281 29.7848 25.4293C29.9241 25.1629 29.9624 24.855 29.8924 24.5626C29.8612 24.4241 29.8025 24.2933 29.72 24.1777C29.6374 24.0622 29.5326 23.9644 29.4117 23.8899C29.4127 23.8882 19.656 18.7538 18.7674 18.2863L17.6172 20.1967ZM12.0314 20.44C11.78 20.5038 11.5636 20.6633 11.4284 20.8845L10.8522 21.8418C10.8284 21.8772 10.8118 21.9169 10.8035 21.9586C10.7951 22.0004 10.7951 22.0434 10.8035 22.0852C10.8119 22.1269 10.8284 22.1666 10.8522 22.202C10.876 22.2373 10.9065 22.2676 10.942 22.291C12.3205 23.058 13.7345 23.9723 15.0954 24.7915C15.1684 24.835 15.2556 24.8479 15.338 24.8273C15.4205 24.8068 15.4915 24.7544 15.5355 24.6817L16.1211 23.7089C16.2478 23.4968 16.29 23.2447 16.2394 23.0029C16.1887 22.761 16.0488 22.5471 15.8476 22.4037C14.9674 21.7813 13.7255 21.1232 12.7734 20.5501C12.5503 20.4167 12.2835 20.3772 12.0314 20.44ZM12.7093 19.7832L14.1869 17.3287H4.11554C3.96528 17.3288 3.81652 17.3586 3.6778 17.4163C3.53907 17.4741 3.41312 17.5587 3.30717 17.6652C2.83992 18.1325 2.83292 19.1427 3.30717 19.617C3.41312 19.7235 3.53907 19.8081 3.6778 19.8659C3.81652 19.9236 3.96528 19.9534 4.11554 19.9535H11.426C11.618 19.8417 11.8303 19.769 12.0506 19.7398C12.2709 19.7106 12.4948 19.7253 12.7093 19.7832ZM14.6007 16.6416L16.105 14.1427C15.857 13.8774 15.702 13.5388 15.6634 13.1778C15.6247 12.8168 15.7045 12.453 15.8907 12.1413L16.4763 11.1685C16.6146 10.9403 16.8377 10.7761 17.0967 10.7118C17.3557 10.6475 17.6296 10.6883 17.8586 10.8253L22.0012 13.3191C22.2294 13.4574 22.3935 13.6805 22.4578 13.9395C22.5221 14.1985 22.4813 14.4724 22.3444 14.7014L21.7587 15.6742C21.5704 15.9845 21.2862 16.2251 20.9492 16.3599C20.6121 16.4946 20.2404 16.5161 19.89 16.4212L19.7574 16.6416H29.028C29.1442 16.6416 29.1114 15.8836 29.1114 15.7773C29.1159 13.1379 28.2837 10.5651 26.7343 8.42835C25.9268 7.314 24.9425 6.33927 23.8203 5.54279L22.9055 9.13347C22.8951 9.17793 22.876 9.21988 22.8492 9.25686C22.8225 9.29384 22.7886 9.32511 22.7496 9.34884C22.7106 9.37257 22.6673 9.38829 22.6221 9.39508C22.577 9.40187 22.5309 9.39958 22.4867 9.38836C22.4424 9.37714 22.4009 9.35721 22.3644 9.32974C22.3279 9.30226 22.2973 9.26779 22.2744 9.22835C22.2514 9.1889 22.2365 9.14527 22.2306 9.1C22.2247 9.05474 22.2278 9.00875 22.2399 8.96472L23.2149 5.13916C22.4419 4.65528 21.6183 4.25753 20.7587 3.95304L19.3409 9.85135C19.3305 9.89505 19.3116 9.93628 19.2852 9.97267C19.2589 10.0091 19.2257 10.0399 19.1874 10.0635C19.1492 10.087 19.1066 10.1028 19.0623 10.1099C19.0179 10.1171 18.9726 10.1154 18.9289 10.105C18.8852 10.0946 18.844 10.0757 18.8076 10.0493C18.7712 10.023 18.7403 9.98978 18.7168 9.95153C18.6932 9.91328 18.6775 9.87076 18.6703 9.82641C18.6632 9.78206 18.6649 9.73674 18.6753 9.69304L20.11 3.72266C20.194 3.3738 20.1406 3.00599 19.9608 2.69542C19.7811 2.38484 19.4888 2.15529 19.1445 2.05429C18.7262 1.93138 18.2997 1.83836 17.8682 1.77591C17.0083 1.6525 16.1352 1.6525 15.2754 1.77591C14.8439 1.83835 14.4174 1.93137 13.9992 2.05429C13.6548 2.1553 13.3626 2.38485 13.1828 2.69542C13.0031 3.00599 12.9496 3.37378 13.0335 3.72266L14.4682 9.69304C14.4892 9.78129 14.4743 9.87428 14.4267 9.95153C14.3792 10.0288 14.3029 10.084 14.2146 10.105C14.1263 10.126 14.0334 10.111 13.9561 10.0635C13.8789 10.0159 13.8237 9.93961 13.8027 9.85135L12.3853 3.95285C11.5255 4.25742 10.7016 4.6553 9.92848 5.13935L10.7993 8.90579C10.8196 8.9944 10.8038 9.08745 10.7555 9.16445C10.7072 9.24146 10.6303 9.29612 10.5417 9.31641C10.4531 9.3367 10.36 9.32096 10.283 9.27264C10.206 9.22433 10.1513 9.1474 10.131 9.05879L9.31854 5.54629C8.20262 6.33884 7.22315 7.30776 6.41854 8.41504C4.86297 10.5543 4.02712 13.1325 4.03154 15.7775C4.03154 16.0667 4.04086 16.3543 4.06054 16.6427C7.51461 16.543 11.1291 16.6416 14.6007 16.6416Z" fill="#FF4D00"/>
<path fill-rule="evenodd" clip-rule="evenodd" d="M16.6604 14.55L13.3291 20.0839L15.9384 21.6546L19.2696 16.1208L16.6604 14.55ZM19.9007 15.6951C20.1211 15.802 20.3734 15.8227 20.6083 15.7533C20.8432 15.6839 21.0438 15.5293 21.1707 15.3198L21.7562 14.3471C21.7998 14.2741 21.8128 14.1868 21.7922 14.1043C21.7717 14.0218 21.7193 13.9507 21.6465 13.9067L17.504 11.4129C17.431 11.3694 17.3437 11.3564 17.2612 11.377C17.1787 11.3975 17.1076 11.4499 17.0636 11.5226C16.8714 11.8419 16.6745 12.2006 16.4707 12.5077C16.3433 12.7282 16.3064 12.9895 16.3678 13.2367C16.4293 13.4839 16.5842 13.6975 16.8 13.8327C17.8472 14.4074 18.8167 15.1326 19.9007 15.6951ZM6.06836 29.5313V30.3165H14.8347V29.5313C14.834 29.3495 14.7614 29.1755 14.6329 29.047C14.5044 28.9185 14.3304 28.8459 14.1487 28.8451H6.75455C6.5728 28.8459 6.39872 28.9184 6.2702 29.0469C6.14168 29.1754 6.06913 29.3495 6.06836 29.5313ZM7.38055 28.1584H13.5225V27.5133C13.5185 27.4458 13.4991 27.38 13.4658 27.3211C13.4326 27.2621 13.3864 27.2115 13.3307 27.173C13.1674 27.0522 12.9685 26.9889 12.7654 26.9931H8.13767C7.93451 26.989 7.7357 27.0522 7.5723 27.173C7.51664 27.2115 7.47045 27.2621 7.43723 27.3211C7.40401 27.38 7.38463 27.4458 7.38055 27.5133V28.1584Z" fill="#FF4D00"/>
</svg>
