<svg width="33" height="33" viewBox="0 0 33 33" fill="none" xmlns="http://www.w3.org/2000/svg">
<g clip-path="url(#clip0_2164_19958)">
<path d="M0.714355 21.1047C0.724736 22.073 1.50671 22.8556 2.47506 22.8669H30.9536C31.9219 22.8556 32.7039 22.073 32.7143 21.1047V19.5889H0.714355V21.1047ZM30.9537 0.857178H2.47514C1.51771 0.857178 0.714355 1.59708 0.714355 2.55443V18.4962H32.7144V2.55443C32.7144 1.59708 31.911 0.857178 30.9537 0.857178ZM24.1405 29.1889H20.5387V23.9596H12.89V29.1889H9.69855C9.26741 29.1889 8.91806 29.5383 8.91806 29.9694C8.91806 30.4004 9.26741 30.7499 9.69855 30.7499H24.1405C24.5717 30.7499 24.921 30.4004 24.921 29.9694C24.921 29.5383 24.5717 29.1889 24.1405 29.1889Z" fill="#FF4D00"/>
</g>
<defs>
<clipPath id="clip0_2164_19958">
<rect width="32" height="32" fill="white" transform="translate(0.714355 0.857178)"/>
</clipPath>
</defs>
</svg>
