<svg width="32" height="33" viewBox="0 0 32 33" fill="none" xmlns="http://www.w3.org/2000/svg">
<g clip-path="url(#clip0_2169_15019)">
<path d="M30.0599 13.6677H17.9387C17.2599 13.6677 16.7266 14.2011 16.7266 14.8798V30.3465C16.7266 31.0253 17.3084 31.5586 17.9387 31.5586H30.0599C30.7387 31.5586 31.272 31.0253 31.272 30.3465V14.8798C31.272 14.2011 30.7387 13.6677 30.0599 13.6677ZM22.3508 28.4071C22.5447 28.6011 22.5447 28.892 22.3508 29.0859C22.1569 29.2798 21.866 29.2798 21.672 29.0859L21.2357 28.6495L20.7993 29.0859C20.6054 29.2798 20.3144 29.2798 20.1205 29.0859C19.9266 28.892 19.9266 28.6011 20.1205 28.4071L20.5569 27.9708L20.1205 27.5344C19.9266 27.3405 19.9266 27.0495 20.1205 26.8556C20.3144 26.6617 20.6054 26.6617 20.7993 26.8556L21.2357 27.292L21.672 26.8556C21.866 26.6617 22.1569 26.6617 22.3508 26.8556C22.5447 27.0495 22.5447 27.3405 22.3508 27.5344L21.9144 27.9708L22.3508 28.4071ZM22.3023 23.7526H21.7205V24.3344C21.7205 24.6253 21.5266 24.8192 21.2357 24.8192C20.9447 24.8192 20.7508 24.6253 20.7508 24.3344V23.7526H20.169C19.8781 23.7526 19.6841 23.5586 19.6841 23.2677C19.6841 22.9768 19.8781 22.7829 20.169 22.7829H20.7508V22.2011C20.7508 21.9101 20.9447 21.7162 21.2357 21.7162C21.5266 21.7162 21.7205 21.9101 21.7205 22.2011V22.7829H22.3023C22.5932 22.7829 22.7872 22.9768 22.7872 23.2677C22.7872 23.5586 22.5932 23.7526 22.3023 23.7526ZM27.7811 29.2798H25.5993C25.3084 29.2798 25.1144 29.0859 25.1144 28.795C25.1144 28.5041 25.3084 28.3101 25.5993 28.3101H27.7811C28.072 28.3101 28.266 28.5041 28.266 28.795C28.266 29.0859 28.072 29.2798 27.7811 29.2798ZM27.7811 27.3405H25.5993C25.3084 27.3405 25.1144 27.1465 25.1144 26.8556C25.1144 26.5647 25.3084 26.3708 25.5993 26.3708H27.7811C28.072 26.3708 28.266 26.5647 28.266 26.8556C28.266 27.1465 28.072 27.3405 27.7811 27.3405ZM27.7811 23.7526H25.5993C25.3084 23.7526 25.1144 23.5586 25.1144 23.2677C25.1144 22.9768 25.3084 22.7829 25.5993 22.7829H27.7811C28.072 22.7829 28.266 22.9768 28.266 23.2677C28.266 23.5586 28.072 23.7526 27.7811 23.7526ZM28.8478 19.8738C28.8478 20.1647 28.6538 20.3586 28.3629 20.3586H19.5387C19.2478 20.3586 19.0538 20.1647 19.0538 19.8738V16.4314C19.0538 16.1405 19.2478 15.9465 19.5387 15.9465H28.3629C28.6538 15.9465 28.8478 16.1405 28.8478 16.4314V19.8738Z" fill="#FF4D00"/>
<path d="M17.8916 12.6979H25.7946V2.22521C25.7946 1.54642 25.2128 0.9646 24.534 0.9646H3.97643C3.29764 1.01308 2.71582 1.54642 2.71582 2.22521V4.40702H6.06127C7.22491 4.40702 8.14612 5.32824 8.14612 6.49187C8.14612 7.65551 7.22491 8.57672 6.06127 8.57672H2.71582V10.9525H6.06127C7.22491 10.9525 8.14612 11.9222 8.14612 13.0373C8.14612 14.201 7.22491 15.1222 6.06127 15.1222H2.71582V17.4494H6.06127C7.22491 17.4494 8.14612 18.3707 8.14612 19.5343C8.14612 20.6979 7.22491 21.6191 6.06127 21.6191H2.71582V23.8979H6.06127C7.22491 23.8979 8.14612 24.8191 8.14612 25.9828C8.14612 27.1464 7.22491 28.0676 6.06127 28.0676H2.71582V30.3464C2.71582 31.0252 3.29764 31.607 3.97643 31.607H16.0492C15.8067 31.2676 15.6613 30.8313 15.6613 30.3949V14.8798C15.7098 13.6676 16.6795 12.6979 17.8916 12.6979Z" fill="#FF4D00"/>
<path d="M1.84269 7.65535H6.06087C6.69117 7.65535 7.17602 7.1705 7.17602 6.5402C7.17602 5.9099 6.69117 5.42505 6.06087 5.42505H1.84269C0.388145 5.42505 0.33966 7.65535 1.84269 7.65535ZM1.84269 14.1523H6.06087C6.69117 14.1523 7.17602 13.6675 7.17602 13.0372C7.17602 12.4069 6.69117 11.922 6.06087 11.922H1.84269C1.21239 11.922 0.727539 12.4069 0.727539 13.0372C0.727539 13.6675 1.21239 14.1523 1.84269 14.1523ZM1.84269 20.6493H6.06087C6.69117 20.6493 7.17602 20.116 7.17602 19.5341C7.17602 18.9038 6.69117 18.419 6.06087 18.419H1.84269C1.21239 18.419 0.727539 18.9523 0.727539 19.5341C0.727539 20.1644 1.21239 20.6493 1.84269 20.6493ZM7.22451 26.0311C7.22451 25.4008 6.73966 24.916 6.10936 24.916H1.84269C1.21239 24.916 0.727539 25.4008 0.727539 26.0311C0.727539 26.6614 1.21239 27.1463 1.84269 27.1463H6.06087C6.69117 27.1463 7.22451 26.6614 7.22451 26.0311Z" fill="#FF4D00"/>
</g>
<defs>
<clipPath id="clip0_2169_15019">
<rect width="32" height="32" fill="white" transform="translate(0 0.285645)"/>
</clipPath>
</defs>
</svg>
