<svg width="33" height="32" viewBox="0 0 33 32" fill="none" xmlns="http://www.w3.org/2000/svg">
<g clip-path="url(#clip0_2169_15018)">
<path d="M17.8407 8.05511C21.2985 8.59012 23.9813 11.2735 24.5176 14.7326C24.542 14.8902 24.622 15.0338 24.7431 15.1376C24.8642 15.2413 25.0184 15.2983 25.1778 15.2983H31.9042C31.9968 15.2981 32.0883 15.2788 32.1729 15.2415C32.2576 15.2042 32.3336 15.1497 32.3962 15.0815C32.4587 15.0133 32.5064 14.9329 32.5363 14.8454C32.5662 14.7578 32.5775 14.665 32.5697 14.5728C31.9003 6.80116 25.7728 0.673682 17.9999 0.00295564C17.8172 -0.0140176 17.6293 0.0493033 17.491 0.17582C17.4227 0.2384 17.3681 0.314516 17.3309 0.399325C17.2936 0.484134 17.2743 0.575777 17.2744 0.668421V7.39485C17.2744 7.72435 17.5145 8.00488 17.8407 8.05511ZM31.9042 16.6344H25.1778C25.0183 16.6343 24.8641 16.6913 24.743 16.7951C24.6219 16.8988 24.5419 17.0424 24.5175 17.2C24.3231 18.4559 23.8233 19.6623 23.0743 20.6891C22.8799 20.9547 22.9086 21.3226 23.1409 21.5555L27.8983 26.3142C28.0236 26.4395 28.1932 26.5099 28.3707 26.5099C28.3798 26.5099 28.3903 26.5099 28.3994 26.5093C28.5873 26.5015 28.7621 26.4147 28.8821 26.2718C31.0103 23.7385 32.2852 20.6571 32.5696 17.3598C32.5852 17.1732 32.5226 16.9886 32.396 16.8509C32.3336 16.7827 32.2576 16.7282 32.1729 16.6909C32.0882 16.6536 31.9967 16.6344 31.9042 16.6344Z" fill="#FF4D00"/>
<path d="M22.196 22.5002C21.9624 22.2673 21.5918 22.2379 21.3296 22.4336C19.9438 23.4475 18.3102 23.9831 16.6061 23.9831C12.1853 23.9831 8.58916 20.387 8.58916 15.9662C8.58916 11.9904 11.4415 8.6631 15.3717 8.05501C15.5294 8.03074 15.6732 7.95082 15.7771 7.8297C15.881 7.70859 15.9381 7.5543 15.938 7.39474V0.668377C15.938 0.481107 15.8597 0.302355 15.7214 0.175776C15.5832 0.0485704 15.4031 -0.0147506 15.2126 0.00291163C7.00251 0.710778 0.572266 7.72299 0.572266 15.9662C0.572266 24.8071 7.76448 32 16.6061 32C20.3679 32 24.0266 30.6658 26.9103 28.2427C26.9812 28.1831 27.0391 28.1094 27.0802 28.0263C27.1212 27.9432 27.1447 27.8525 27.1492 27.76C27.157 27.5734 27.0865 27.3914 26.9534 27.2589L22.196 22.5002Z" fill="#FF4D00"/>
</g>
<defs>
<clipPath id="clip0_2169_15018">
<rect width="32" height="32" fill="white" transform="translate(0.572266)"/>
</clipPath>
</defs>
</svg>
