<svg width="44" height="44" viewBox="0 0 44 44" fill="none" xmlns="http://www.w3.org/2000/svg">
<path d="M17.21 21.1699H18.8534C20.6315 21.1699 21.5401 19.8852 21.5401 18.6061C21.5401 17.365 20.6066 16.1035 18.8534 16.1035H17.21V21.1699Z" fill="#401D19"/>
<path fill-rule="evenodd" clip-rule="evenodd" d="M5.32125 33.5631C5.32125 36.2185 7.47408 38.3713 10.1295 38.3713H26.8808C29.5362 38.3713 31.689 36.2185 31.689 33.5631V10.7067C31.689 8.05126 29.5362 5.89844 26.8808 5.89844H10.129C7.47363 5.89844 5.3208 8.05126 5.3208 10.7067L5.32125 33.5631ZM14.8511 14.9243C14.8511 14.6115 14.9754 14.3116 15.1965 14.0904C15.4177 13.8692 15.7177 13.745 16.0305 13.745H18.8533C22.0095 13.745 23.8988 16.165 23.8988 18.6063C23.8988 21.009 22.107 23.5288 18.8533 23.5288H17.2099V25.3637L20.9948 25.3433C21.1497 25.3424 21.3032 25.3721 21.4466 25.4306C21.59 25.4891 21.7205 25.5753 21.8306 25.6842C21.9407 25.7931 22.0283 25.9227 22.0883 26.0654C22.1483 26.2082 22.1797 26.3614 22.1805 26.5163C22.1813 26.6712 22.1517 26.8247 22.0932 26.9681C22.0347 27.1115 21.9485 27.242 21.8396 27.3521C21.7306 27.4622 21.6011 27.5498 21.4583 27.6098C21.3156 27.6699 21.1624 27.7012 21.0075 27.702L17.2099 27.7224V29.345C17.2099 29.6578 17.0856 29.9578 16.8644 30.1789C16.6433 30.4001 16.3433 30.5244 16.0305 30.5244C15.7177 30.5244 15.4177 30.4001 15.1965 30.1789C14.9754 29.9578 14.8511 29.6578 14.8511 29.345V27.7351L14.2977 27.7383C14.1428 27.7391 13.9893 27.7095 13.8459 27.651C13.7025 27.5925 13.572 27.5063 13.4619 27.3974C13.3518 27.2884 13.2642 27.1589 13.2042 27.0161C13.1441 26.8734 13.1128 26.7202 13.112 26.5653C13.1111 26.4104 13.1408 26.2569 13.1993 26.1135C13.2578 25.9701 13.344 25.8396 13.4529 25.7295C13.5618 25.6194 13.6914 25.5318 13.8342 25.4718C13.9769 25.4117 14.1301 25.3804 14.285 25.3796L14.8511 25.3764V23.5288H14.2914C13.9786 23.5288 13.6786 23.4046 13.4574 23.1834C13.2362 22.9622 13.112 22.6622 13.112 22.3494C13.112 22.0367 13.2362 21.7367 13.4574 21.5155C13.6786 21.2943 13.9786 21.1701 14.2914 21.1701H14.8511V14.9243Z" fill="#401D19"/>
<path d="M33.9448 33.769C33.9448 34.0818 34.0691 34.3818 34.2903 34.6029C34.5114 34.8241 34.8114 34.9484 35.1242 34.9484H36.7926C37.5866 34.9484 38.3481 34.633 38.9095 34.0715C39.471 33.5101 39.7864 32.7486 39.7864 31.9546V17.4196C39.7864 16.6256 39.471 15.8641 38.9095 15.3026C38.3481 14.7412 37.5866 14.4258 36.7926 14.4258H35.1242C34.8114 14.4258 34.5114 14.55 34.2903 14.7712C34.0691 14.9924 33.9448 15.2924 33.9448 15.6052V33.769Z" fill="#401D19"/>
</svg>
