<svg width="44" height="44" viewBox="0 0 44 44" fill="none" xmlns="http://www.w3.org/2000/svg">
<path fill-rule="evenodd" clip-rule="evenodd" d="M39.1325 20.0854L38.9306 14.8481C38.8666 13.1888 41.448 12.9553 41.7096 14.5978L43.0656 23.1113C43.3338 24.7954 42.886 26.3716 41.68 27.5776L34.7564 34.5012C34.1764 35.0812 33.9044 35.8079 33.961 36.6261L33.9699 36.7547H24.8335L24.8845 32.497C24.9003 31.1777 25.3547 30.0421 26.2877 29.1091L28.2029 27.1939C28.8249 26.5719 29.5011 26.1814 30.3508 25.9538L31.2774 25.7055L35.9402 21.0427C36.6881 20.2948 37.9119 20.2948 38.6598 21.0427C39.0032 21.3861 39.173 21.8002 39.2148 22.2519C39.2493 22.8044 39.0793 23.3428 38.6598 23.7623L34.6844 27.7377C34.589 27.8346 34.5358 27.9654 34.5364 28.1014C34.5369 28.2374 34.5912 28.3677 34.6874 28.4639C34.7836 28.5601 34.9139 28.6144 35.0499 28.6149C35.1859 28.6155 35.3166 28.5623 35.4136 28.4669L39.389 24.4915C40.6347 23.2458 40.516 21.1793 39.1325 20.0852V20.0854ZM4.86755 20.0854L5.06942 14.8481C5.13344 13.1888 2.55205 12.9553 2.29037 14.5978L0.93445 23.1113C0.66624 24.7954 1.11406 26.3716 2.32002 27.5776L9.24366 34.5012C9.82365 35.0812 10.0956 35.8079 10.039 36.6261L10.0301 36.7547H19.1665L19.1156 32.497C19.0997 31.1777 18.6453 30.0421 17.7123 29.1091L15.7971 27.1939C15.1752 26.5719 14.4989 26.1814 13.6492 25.9538L12.7226 25.7055L8.0597 21.0427C7.31179 20.2948 6.08804 20.2948 5.34012 21.0427C4.99672 21.3861 4.8269 21.8002 4.78514 22.2519C4.75059 22.8044 4.92066 23.3428 5.34012 23.7623L9.3155 27.7377C9.36338 27.7856 9.40136 27.8424 9.42727 27.905C9.45318 27.9675 9.46651 28.0346 9.46651 28.1023C9.46651 28.17 9.45316 28.2371 9.42725 28.2996C9.40133 28.3622 9.36335 28.419 9.31546 28.4669C9.26758 28.5148 9.21073 28.5528 9.14817 28.5787C9.08561 28.6046 9.01856 28.6179 8.95084 28.6179C8.88313 28.6179 8.81608 28.6046 8.75352 28.5786C8.69096 28.5527 8.63412 28.5147 8.58624 28.4669L4.61086 24.4915C3.36519 23.2458 3.48387 21.1793 4.86738 20.0852L4.86755 20.0854ZM20.8524 41.7858H8.28529V37.786H20.8524V41.7858ZM22 26.2047C32.8963 20.9547 32.0659 12.0728 32.0853 5.91574C28.6236 5.91574 24.5624 4.77716 22.0001 2.21484C19.4377 4.77716 15.3765 5.91574 11.9148 5.91574C11.9342 12.0728 11.1038 20.9547 22.0001 26.2047H22ZM17.2518 15.1019L19.9293 18.7435C20.4813 19.4955 21.5863 19.4544 22.1132 18.7202L26.8358 12.2969C27.2744 11.6986 27.1449 10.858 26.5466 10.4194C25.9483 9.98084 25.1077 10.1104 24.6692 10.7086L21.0127 15.6819L19.4187 13.5137C18.9801 12.9154 18.1395 12.7859 17.5413 13.2245C16.943 13.663 16.8135 14.5036 17.252 15.1019L17.2518 15.1019ZM23.1476 41.7858H35.7146V37.786H23.1477V41.7858H23.1476Z" fill="#401D19"/>
</svg>
