<svg width="44" height="44" viewBox="0 0 44 44" fill="none" xmlns="http://www.w3.org/2000/svg">
<g clip-path="url(#clip0_4001_2133)">
<path d="M12.9766 32.929L8.68888 35.311C8.09849 34.8336 7.34791 34.5469 6.53125 34.5469C4.63581 34.5469 3.09375 36.0889 3.09375 37.9844C3.09375 39.8798 4.63581 41.4219 6.53125 41.4219C8.42669 41.4219 9.96875 39.8798 9.96875 37.9844C9.96875 37.842 9.95904 37.7019 9.94211 37.5641L14.8916 34.8144C15.0926 34.7028 15.26 34.5394 15.3766 34.3413C15.4932 34.1431 15.5547 33.9174 15.5547 33.6875V29.2188H12.9766V32.929ZM23.2891 37.3767V29.2188H20.7109V37.3767C19.4526 37.8878 18.5625 39.1228 18.5625 40.5625C18.5625 42.4579 20.1046 44 22 44C23.8954 44 25.4375 42.4579 25.4375 40.5625C25.4375 39.1228 24.5474 37.8878 23.2891 37.3767ZM37.4688 34.5469C36.6521 34.5469 35.9015 34.8336 35.3111 35.311L31.0234 32.929V29.2188H28.4453V33.6875C28.4453 33.9174 28.5068 34.1431 28.6233 34.3412C28.7399 34.5393 28.9074 34.7027 29.1083 34.8143L34.0578 37.564C34.0404 37.7034 34.0315 37.8438 34.0312 37.9843C34.0312 39.8797 35.5732 41.4218 37.4687 41.4218C39.3641 41.4218 40.9062 39.8797 40.9062 37.9843C40.9062 36.0889 39.3642 34.5469 37.4688 34.5469ZM38.7571 12.3589C38.7025 8.39652 35.477 5.18598 31.5086 5.15642C31.1362 4.10418 30.4975 3.16635 29.6549 2.43427C28.4848 1.41832 26.9871 0.859068 25.4375 0.859375C24.035 0.859375 22.6774 1.32223 21.5684 2.15677C19.7134 0.758742 17.4656 0 15.125 0C9.20176 0 4.38281 4.81895 4.38281 10.7422C4.38281 11.3686 4.43807 11.9936 4.54764 12.6112C3.45194 13.0757 2.47328 13.8065 1.71617 14.7387C0.664898 16.0331 0.0859375 17.6657 0.0859375 19.3359C0.0859375 23.3637 3.36282 26.6406 7.39062 26.6406H36.6094C40.6372 26.6406 43.9141 23.3637 43.9141 19.3359C43.9141 16.0973 41.7679 13.2851 38.7571 12.3589ZM25.3422 20.3902C24.8388 20.8936 24.0226 20.8936 23.5192 20.3902C22.6815 19.5525 21.3185 19.5525 20.4809 20.3902C19.9775 20.8936 19.1613 20.8936 18.6579 20.3902C18.1545 19.8868 18.1545 19.0706 18.6579 18.5672C20.5008 16.7243 23.4994 16.7243 25.3423 18.5672C25.8456 19.0706 25.8456 19.8869 25.3422 20.3902ZM28.9882 16.7442C28.4848 17.2477 27.6686 17.2477 27.1652 16.7442C24.3171 13.8962 19.6829 13.8962 16.8348 16.7442C16.3314 17.2477 15.5152 17.2477 15.0118 16.7442C14.5084 16.2408 14.5084 15.4247 15.0118 14.9212C18.8651 11.068 25.1349 11.068 28.9883 14.9212C29.4916 15.4247 29.4916 16.2408 28.9882 16.7442Z" fill="#401D19"/>
</g>
<defs>
<clipPath id="clip0_4001_2133">
<rect width="44" height="44" fill="white"/>
</clipPath>
</defs>
</svg>
