<svg width="44" height="44" viewBox="0 0 44 44" fill="none" xmlns="http://www.w3.org/2000/svg">
<path d="M31.625 4.125H12.375C10.5523 4.12718 8.80489 4.85221 7.51605 6.14105C6.22721 7.42989 5.50218 9.17731 5.5 11V24.75C5.50218 26.5727 6.22721 28.3201 7.51605 29.609C8.80489 30.8978 10.5523 31.6228 12.375 31.625H15.125V38.5C15.1252 38.7627 15.2008 39.0199 15.3426 39.2411C15.4845 39.4622 15.6867 39.6381 15.9254 39.7479C16.1641 39.8577 16.4292 39.8968 16.6895 39.8606C16.9497 39.8244 17.1941 39.7144 17.3937 39.5436L26.6338 31.625H31.625C33.4477 31.6228 35.1951 30.8978 36.4839 29.609C37.7728 28.3201 38.4978 26.5727 38.5 24.75V11C38.4978 9.17731 37.7728 7.42989 36.4839 6.14105C35.1951 4.85221 33.4477 4.12718 31.625 4.125ZM13.75 20.625C13.2061 20.625 12.6744 20.4637 12.2222 20.1615C11.7699 19.8594 11.4175 19.4299 11.2093 18.9274C11.0012 18.4249 10.9467 17.872 11.0528 17.3385C11.1589 16.8051 11.4209 16.3151 11.8055 15.9305C12.1901 15.5459 12.6801 15.284 13.2135 15.1778C13.7469 15.0717 14.2999 15.1262 14.8024 15.3343C15.3049 15.5425 15.7344 15.8949 16.0365 16.3472C16.3387 16.7994 16.5 17.3311 16.5 17.875C16.5 18.6043 16.2103 19.3038 15.6945 19.8195C15.1788 20.3353 14.4793 20.625 13.75 20.625ZM22 20.625C21.4561 20.625 20.9244 20.4637 20.4722 20.1615C20.0199 19.8594 19.6675 19.4299 19.4593 18.9274C19.2512 18.4249 19.1967 17.872 19.3028 17.3385C19.4089 16.8051 19.6709 16.3151 20.0555 15.9305C20.4401 15.5459 20.9301 15.284 21.4635 15.1778C21.9969 15.0717 22.5499 15.1262 23.0524 15.3343C23.5549 15.5425 23.9844 15.8949 24.2865 16.3472C24.5887 16.7994 24.75 17.3311 24.75 17.875C24.75 18.6043 24.4603 19.3038 23.9445 19.8195C23.4288 20.3353 22.7293 20.625 22 20.625ZM30.25 20.625C29.7061 20.625 29.1744 20.4637 28.7222 20.1615C28.2699 19.8594 27.9175 19.4299 27.7093 18.9274C27.5012 18.4249 27.4467 17.872 27.5528 17.3385C27.6589 16.8051 27.9209 16.3151 28.3055 15.9305C28.6901 15.5459 29.1801 15.284 29.7135 15.1778C30.2469 15.0717 30.7999 15.1262 31.3024 15.3343C31.8049 15.5425 32.2344 15.8949 32.5365 16.3472C32.8387 16.7994 33 17.3311 33 17.875C33 18.6043 32.7103 19.3038 32.1945 19.8195C31.6788 20.3353 30.9793 20.625 30.25 20.625Z" fill="#401D19"/>
</svg>
