<svg width="47" height="42" viewBox="0 0 47 42" fill="none" xmlns="http://www.w3.org/2000/svg">
<path d="M38.9164 26.9439V32.7414C38.9105 33.6097 38.6854 34.4624 38.262 35.2204C37.8385 35.9785 37.2304 36.6172 36.4942 37.0775C32.7361 39.7139 28.257 41.1284 23.6664 41.1284C19.0758 41.1284 14.5966 39.7139 10.8386 37.0775C10.1023 36.6172 9.49422 35.9785 9.07077 35.2204C8.64732 34.4624 8.42223 33.6097 8.41637 32.7414V26.9439C8.41625 26.8997 8.42765 26.8562 8.44944 26.8178C8.47123 26.7794 8.50267 26.7473 8.54064 26.7247C8.57862 26.7021 8.62182 26.6898 8.66599 26.689C8.71017 26.6882 8.75378 26.699 8.79254 26.7202L18.1255 31.8264C19.8286 32.743 21.7324 33.2227 23.6664 33.2227C25.6004 33.2227 27.5042 32.743 29.2072 31.8264L38.5402 26.7202C38.579 26.699 38.6226 26.6882 38.6668 26.689C38.7109 26.6898 38.7541 26.7021 38.7921 26.7247C38.8301 26.7473 38.8615 26.7794 38.8833 26.8178C38.9051 26.8562 38.9165 26.8997 38.9164 26.9439ZM43.8396 10.3874L27.3899 1.41282C26.2481 0.788584 24.9677 0.461426 23.6664 0.461426C22.3651 0.461426 21.0846 0.788584 19.9428 1.41282L3.49317 10.3874C2.67537 10.8338 1.99289 11.4922 1.51741 12.2934C1.04193 13.0947 0.791016 14.0092 0.791016 14.9408C0.791016 15.8725 1.04193 16.787 1.51741 17.5882C1.99289 18.3895 2.67537 19.0479 3.49317 19.4942L19.9428 28.4663C21.0846 29.0906 22.3651 29.4177 23.6664 29.4177C24.9677 29.4177 26.2481 29.0906 27.3899 28.4663L43.8396 19.4942L42.0935 20.4448V30.9622C42.0935 31.4678 42.2943 31.9527 42.6518 32.3102C43.0093 32.6677 43.4941 32.8685 43.9997 32.8685C44.5053 32.8685 44.9901 32.6677 45.3476 32.3102C45.7051 31.9527 45.906 31.4678 45.906 30.9622V17.4177C46.5639 16.2113 46.7159 14.7931 46.3284 13.4747C45.9409 12.1564 45.0457 11.0459 43.8396 10.3874Z" fill="black"/>
</svg>
