<svg width="41" height="41" viewBox="0 0 41 41" fill="none" xmlns="http://www.w3.org/2000/svg">
<g clip-path="url(#clip0_2169_15757)">
<path d="M37.3547 9.11277H29.0102V7.44381C29.0102 5.60297 27.5133 4.10596 25.6723 4.10596H15.6589C13.818 4.10596 12.321 5.60289 12.321 7.44381V9.11269H3.97652C2.13561 9.11277 0.638672 10.6097 0.638672 12.4505V17.4573C0.638672 19.2982 2.13561 20.7951 3.97652 20.7951H17.3278V19.9606C17.3278 19.851 17.3493 19.7425 17.3912 19.6412C17.4331 19.5399 17.4946 19.4479 17.5721 19.3704C17.6496 19.2929 17.7416 19.2314 17.8429 19.1895C17.9442 19.1476 18.0527 19.1261 18.1623 19.1262H23.1691C23.2787 19.1261 23.3872 19.1476 23.4885 19.1895C23.5898 19.2314 23.6818 19.2929 23.7593 19.3704C23.8368 19.4479 23.8983 19.5399 23.9402 19.6412C23.9821 19.7425 24.0036 19.851 24.0035 19.9606V20.7951H37.3549C39.1956 20.7951 40.6925 19.2982 40.6925 17.4573V12.4505C40.6925 10.6097 39.1956 9.11277 37.3547 9.11277ZM25.6723 9.11277H15.6589V7.44381H25.6723V9.11277ZM40.2297 21.6956C40.0905 21.6266 39.9349 21.5977 39.7803 21.6123C39.6257 21.6268 39.4782 21.6842 39.3544 21.7779C38.7612 22.2269 38.0701 22.464 37.3546 22.464H24.0035V24.9674C24.0035 25.077 23.982 25.1855 23.9401 25.2868C23.8982 25.3881 23.8367 25.4801 23.7592 25.5576C23.6817 25.6351 23.5897 25.6966 23.4884 25.7385C23.3871 25.7804 23.2786 25.8019 23.169 25.8019H18.1622C18.0526 25.8019 17.9441 25.7804 17.8428 25.7385C17.7415 25.6966 17.6495 25.6351 17.572 25.5576C17.4945 25.4801 17.433 25.3881 17.3911 25.2868C17.3492 25.1855 17.3277 25.077 17.3278 24.9674V22.464H3.97652C3.26103 22.464 2.57002 22.2269 1.97672 21.7779C1.85324 21.6834 1.70568 21.6256 1.55091 21.6111C1.39615 21.5965 1.2404 21.6258 1.10148 21.6956C0.962436 21.7647 0.845449 21.8713 0.763686 22.0033C0.681922 22.1354 0.638627 22.2876 0.638672 22.4429V34.1464C0.638672 35.9873 2.13561 37.4843 3.97652 37.4843H37.3548C39.1956 37.4843 40.6926 35.9874 40.6926 34.1464V22.4429C40.6926 22.2876 40.6493 22.1353 40.5675 22.0033C40.4857 21.8713 40.3687 21.7647 40.2297 21.6956Z" fill="#401D19"/>
</g>
<defs>
<clipPath id="clip0_2169_15757">
<rect width="40.0539" height="40.0539" fill="white" transform="translate(0.638672 0.768555)"/>
</clipPath>
</defs>
</svg>
