<svg width="46" height="46" viewBox="0 0 46 46" fill="none" xmlns="http://www.w3.org/2000/svg">
<g clip-path="url(#clip0_2164_18222)">
<path fill-rule="evenodd" clip-rule="evenodd" d="M19.6005 40.7103V21.2698C19.5996 20.8399 19.4285 20.4279 19.1246 20.1239C18.8206 19.8199 18.4086 19.6488 17.9787 19.6479H2.53484C2.10498 19.6488 1.69296 19.8199 1.38901 20.1239C1.08505 20.4279 0.913922 20.8399 0.913086 21.2698V40.7103C0.913922 41.1402 1.08505 41.5522 1.38901 41.8562C1.69296 42.1601 2.10498 42.3313 2.53484 42.3321H17.9787C18.4086 42.3313 18.8206 42.1601 19.1246 41.8562C19.4285 41.5522 19.5996 41.1402 19.6005 40.7103ZM29.982 3.25879C34.5204 3.25879 38.1993 6.89263 38.1993 11.3752C38.1993 15.8578 34.5204 19.4917 29.982 19.4917C25.4437 19.4917 21.7649 15.8578 21.7649 11.3752C21.7649 6.89263 25.4438 3.25879 29.982 3.25879ZM20.9188 21.2698V37.4153H43.1006C43.45 37.4146 43.785 37.2755 44.0321 37.0284C44.2792 36.7813 44.4183 36.4464 44.4189 36.0969V30.2707C44.4189 24.973 40.8215 20.4747 35.9488 19.0976C35.7555 22.4738 35.1853 25.0239 33.6733 28.008L30.7817 21.487L31.8054 20.637C30.601 20.8676 29.3638 20.8676 28.1594 20.637L29.1831 21.4871L26.2915 28.008C24.7798 25.0239 24.2085 22.4738 24.0159 19.0976C22.8865 19.4173 21.8123 19.9071 20.8302 20.55C20.8896 20.7853 20.9195 21.0271 20.9194 21.2698H20.9188ZM16.5495 21.8803C16.7214 21.8807 16.8861 21.9492 17.0077 22.0708C17.1292 22.1923 17.1977 22.357 17.1982 22.5289V24.9128C17.1977 25.0847 17.1292 25.2494 17.0077 25.371C16.8861 25.4925 16.7214 25.561 16.5495 25.5615H3.96412C3.79224 25.561 3.62752 25.4925 3.50598 25.371C3.38444 25.2494 3.31595 25.0847 3.31549 24.9128V22.5289C3.31595 22.357 3.38444 22.1923 3.50598 22.0708C3.62752 21.9492 3.79224 21.8807 3.96412 21.8803H16.5495ZM3.96412 27.3074H5.92909C6.10098 27.3079 6.26569 27.3764 6.38723 27.4979C6.50877 27.6195 6.57726 27.7842 6.57772 27.9561V29.9211C6.5774 30.093 6.50896 30.2578 6.38739 30.3794C6.26581 30.501 6.10102 30.5694 5.92909 30.5697H3.96412C3.79219 30.5694 3.6274 30.501 3.50583 30.3794C3.38426 30.2578 3.31581 30.093 3.31549 29.9211V27.9561C3.31595 27.7842 3.38444 27.6195 3.50598 27.4979C3.62752 27.3764 3.79224 27.3079 3.96412 27.3074ZM3.96412 32.3157H5.92909C6.10098 32.3162 6.26569 32.3846 6.38723 32.5062C6.50877 32.6277 6.57726 32.7924 6.57772 32.9643V34.9294C6.5774 35.1013 6.50895 35.2661 6.38738 35.3876C6.26581 35.5092 6.10101 35.5776 5.92909 35.5779H3.96412C3.7922 35.5776 3.62741 35.5092 3.50583 35.3876C3.38426 35.2661 3.31581 35.1013 3.31549 34.9294V32.9644C3.31595 32.7925 3.38444 32.6278 3.50598 32.5063C3.62752 32.3847 3.79224 32.3162 3.96412 32.3158V32.3157ZM3.96412 37.3239H5.92909C6.10098 37.3243 6.26569 37.3928 6.38723 37.5144C6.50877 37.6359 6.57726 37.8006 6.57772 37.9725V39.9376C6.57738 40.1095 6.50892 40.2743 6.38735 40.3958C6.26579 40.5174 6.101 40.5858 5.92909 40.5861H3.96412C3.79221 40.5858 3.62743 40.5174 3.50586 40.3958C3.38429 40.2743 3.31584 40.1095 3.31549 39.9376V37.9725C3.31595 37.8006 3.38444 37.6359 3.50598 37.5144C3.62752 37.3928 3.79224 37.3243 3.96412 37.3239ZM9.2743 27.3074H11.2394C11.4113 27.3078 11.576 27.3762 11.6976 27.4978C11.8191 27.6194 11.8876 27.7841 11.8879 27.9561V29.9211C11.8876 30.093 11.8191 30.2578 11.6976 30.3794C11.576 30.5009 11.4113 30.5694 11.2394 30.5697H9.2743C9.10241 30.5693 8.9377 30.5008 8.81616 30.3793C8.69461 30.2577 8.62613 30.093 8.62566 29.9211V27.9561C8.62613 27.7842 8.69461 27.6195 8.81616 27.4979C8.9377 27.3764 9.10241 27.3079 9.2743 27.3074ZM9.2743 32.3157H11.2394C11.4113 32.316 11.576 32.3845 11.6976 32.5061C11.8191 32.6276 11.8876 32.7924 11.8879 32.9643V34.9294C11.8876 35.1013 11.8191 35.2661 11.6976 35.3876C11.576 35.5092 11.4113 35.5776 11.2394 35.5779H9.2743C9.10238 35.5776 8.9376 35.5092 8.81603 35.3876C8.69447 35.2661 8.62601 35.1013 8.62566 34.9294V32.9644C8.62613 32.7925 8.69461 32.6278 8.81616 32.5063C8.9377 32.3847 9.10241 32.3162 9.2743 32.3158V32.3157ZM9.2743 37.3239H11.2394C11.4113 37.3242 11.576 37.3927 11.6976 37.5142C11.8191 37.6358 11.8876 37.8006 11.8879 37.9725V39.9376C11.8876 40.1095 11.8191 40.2742 11.6976 40.3958C11.576 40.5173 11.4113 40.5858 11.2394 40.5861H9.2743C9.10238 40.5858 8.9376 40.5174 8.81603 40.3958C8.69447 40.2743 8.62601 40.1095 8.62566 39.9376V37.9725C8.62613 37.8006 8.69461 37.6359 8.81616 37.5144C8.9377 37.3928 9.10241 37.3243 9.2743 37.3239ZM14.5845 27.3074H16.5495C16.7214 27.3079 16.8861 27.3764 17.0077 27.4979C17.1292 27.6195 17.1977 27.7842 17.1982 27.9561V29.9211C17.1977 30.093 17.1292 30.2577 17.0077 30.3793C16.8861 30.5008 16.7214 30.5693 16.5495 30.5697H14.5845C14.4126 30.5693 14.2479 30.5008 14.1263 30.3793C14.0048 30.2577 13.9363 30.093 13.9358 29.9211V27.9561C13.9363 27.7842 14.0048 27.6195 14.1263 27.4979C14.2479 27.3764 14.4126 27.3079 14.5845 27.3074ZM14.5845 32.3157H16.5495C16.7214 32.3162 16.8861 32.3846 17.0077 32.5062C17.1292 32.6277 17.1977 32.7924 17.1982 32.9643V39.9376C17.1978 40.1095 17.1294 40.2743 17.0078 40.3958C16.8862 40.5174 16.7214 40.5858 16.5495 40.5861H14.5845C14.4126 40.5858 14.2478 40.5174 14.1262 40.3958C14.0046 40.2743 13.9362 40.1095 13.9358 39.9376V32.9644C13.9363 32.7925 14.0048 32.6278 14.1263 32.5062C14.2478 32.3847 14.4126 32.3162 14.5845 32.3157Z" fill="#401D19"/>
</g>
<defs>
<clipPath id="clip0_2164_18222">
<rect width="45" height="45" fill="white" transform="translate(0.166016 0.29541)"/>
</clipPath>
</defs>
</svg>
