<svg width="38" height="42" viewBox="0 0 38 42" fill="none" xmlns="http://www.w3.org/2000/svg">
<path d="M37.3339 18.9796V9.9464C37.3339 8.25911 36.0581 6.34548 34.4737 5.7076L23.0125 1.01612C20.4334 -0.0333684 17.5462 -0.0333684 14.967 1.01612L3.50584 5.7076C1.94201 6.34548 0.66626 8.25911 0.66626 9.9464V18.9796C0.66626 29.0416 7.97098 38.4657 17.9507 41.2229C18.6297 41.4081 19.3705 41.4081 20.0495 41.2229C30.0292 38.4657 37.3339 29.0416 37.3339 18.9796ZM20.5433 22.5805V27.9921C20.5433 28.8358 19.8437 29.5354 19.0001 29.5354C18.1564 29.5354 17.4568 28.8358 17.4568 27.9921V22.5805C16.417 22.2545 15.5078 21.6064 14.8605 20.7298C14.2133 19.8532 13.8614 18.7935 13.8559 17.7038C13.8559 16.3395 14.3979 15.031 15.3626 14.0663C16.3273 13.1016 17.6358 12.5596 19.0001 12.5596C20.3644 12.5596 21.6728 13.1016 22.6376 14.0663C23.6023 15.031 24.1442 16.3395 24.1442 17.7038C24.1442 20.0084 22.6216 21.922 20.5433 22.5805Z" fill="#401D19"/>
</svg>
