<svg width="37" height="42" viewBox="0 0 37 42" fill="none" xmlns="http://www.w3.org/2000/svg">
<path d="M36.9997 18.9796V9.9464C36.9997 8.25911 35.7239 6.34548 34.1395 5.7076L22.6783 1.01612C20.0991 -0.0333684 17.212 -0.0333684 14.6328 1.01612L3.17161 5.7076C1.60778 6.34548 0.332031 8.25911 0.332031 9.9464V18.9796C0.332031 29.0416 7.63675 38.4657 17.6164 41.2229C18.2955 41.4081 19.0362 41.4081 19.7153 41.2229C29.6949 38.4657 36.9997 29.0416 36.9997 18.9796ZM20.2091 22.5805V27.9921C20.2091 28.8358 19.5095 29.5354 18.6658 29.5354C17.8222 29.5354 17.1226 28.8358 17.1226 27.9921V22.5805C16.0828 22.2545 15.1736 21.6064 14.5263 20.7298C13.879 19.8532 13.5272 18.7935 13.5217 17.7038C13.5217 16.3395 14.0637 15.031 15.0284 14.0663C15.9931 13.1016 17.3015 12.5596 18.6658 12.5596C20.0302 12.5596 21.3386 13.1016 22.3033 14.0663C23.268 15.031 23.81 16.3395 23.81 17.7038C23.81 20.0084 22.2873 21.922 20.2091 22.5805Z" fill="#401D19"/>
</svg>
