<svg width="38" height="38" viewBox="0 0 38 38" fill="none" xmlns="http://www.w3.org/2000/svg">
<g clip-path="url(#clip0_4001_2149)">
<path d="M19.7643 20.882V18.7747H24.9628C25.5659 18.7747 26.0549 18.2979 26.0549 17.7099C26.0549 17.1218 25.5659 16.6451 24.9628 16.6451H12.3816C11.7785 16.6451 11.2895 17.1218 11.2895 17.7099C11.2895 18.2979 11.7785 18.7747 12.3816 18.7747H17.5801V20.882C13.4884 21.4053 10.3192 24.8267 10.3192 28.9565C10.3193 33.4472 14.0664 37.1006 18.6723 37.1006C23.2781 37.1006 27.0252 33.4472 27.0252 28.9565C27.0252 24.8266 23.856 21.4052 19.7643 20.882ZM34.4591 1.36877C34.3632 1.18676 34.2176 1.03412 34.0383 0.927694C33.859 0.821264 33.6531 0.76518 33.4432 0.765628H28.4369C28.2542 0.765811 28.0742 0.808579 27.9119 0.890365C27.7497 0.972151 27.6098 1.09058 27.504 1.23578L20.0581 11.4666L22.186 14.5156H25.6566L34.3759 2.52568C34.4977 2.35903 34.57 2.16281 34.5847 1.95866C34.5994 1.75451 34.5559 1.55038 34.4591 1.36877ZM8.9076 0.765628H3.90128C3.69146 0.765178 3.48559 0.821224 3.30636 0.927587C3.12713 1.03395 2.98151 1.1865 2.88554 1.36842C2.78872 1.55001 2.74522 1.75416 2.75985 1.95833C2.77448 2.1625 2.84667 2.35876 2.96845 2.52546L11.6878 14.5156H19.4978L9.83992 1.23507C9.73413 1.09006 9.59432 0.97179 9.43214 0.890132C9.26997 0.808473 9.09013 0.765786 8.9076 0.765628Z" fill="#2B2A28"/>
</g>
<defs>
<clipPath id="clip0_4001_2149">
<rect width="37.2667" height="36.335" fill="white" transform="translate(0.0389404 0.765625)"/>
</clipPath>
</defs>
</svg>
