<svg width="57" height="58" viewBox="0 0 57 58" fill="none" xmlns="http://www.w3.org/2000/svg">
<path d="M49.5876 48.731C49.7129 48.8365 49.8032 48.9776 49.8464 49.1356C49.8897 49.2936 49.8839 49.461 49.8298 49.6156C49.7756 49.7702 49.6758 49.9047 49.5435 50.0012C49.4111 50.0977 49.2526 50.1517 49.0888 50.156C47.5633 50.3159 46.0212 50.1602 44.5585 49.6985C43.0957 49.2368 41.7436 48.479 40.5863 47.4723C38.6073 48.151 36.5272 48.4883 34.4351 48.4698C32.2513 48.5502 30.0737 48.1885 28.0331 47.4066C25.9925 46.6246 24.131 45.4385 22.5601 43.9193C22.1112 43.4443 22.2252 42.5347 23.2536 42.6154C23.8093 42.6534 24.3675 42.6724 24.9351 42.6724C35.91 42.6724 44.2106 36.2599 45.9633 26.9784C45.9813 26.8369 46.0414 26.704 46.1357 26.5969C46.2301 26.4899 46.3544 26.4137 46.4926 26.3781C46.6307 26.3425 46.7764 26.3493 46.9107 26.3975C47.045 26.4456 47.1618 26.533 47.2458 26.6483C49.0061 28.971 49.9323 31.819 49.875 34.7328C49.9447 38.0287 48.7459 41.2255 46.5262 43.6628C46.8819 45.6738 47.9731 47.4804 49.5876 48.731ZM42.75 23.2639C42.75 33.1653 34.7747 39.1075 24.9375 39.1075C23.1054 39.114 21.2795 38.8946 19.5011 38.4544C18.9311 38.3119 18.3769 38.1465 17.8386 37.958C16.5063 39.1207 14.9489 39.9966 13.2635 40.5315C11.5781 41.0663 9.80062 41.2486 8.04171 41.0669C7.85348 41.0561 7.67271 40.9896 7.5224 40.8758C7.3721 40.762 7.25907 40.606 7.19769 40.4277C7.13631 40.2494 7.12937 40.0569 7.17775 39.8747C7.22612 39.6925 7.32763 39.5288 7.46934 39.4044C9.32468 37.967 10.5799 35.8916 10.9915 33.5809C8.42786 30.7646 7.04374 27.0714 7.12497 23.2639C7.12497 13.3578 15.1002 7.42029 24.9375 7.42029C34.6631 7.42029 42.5552 13.2367 42.731 22.9409C42.731 23.0502 42.75 23.1523 42.75 23.2639ZM19.285 23.0668C19.285 22.4369 19.0347 21.8328 18.5893 21.3874C18.1439 20.942 17.5399 20.6918 16.91 20.6918H16.8862C16.4175 20.6965 15.9607 20.8397 15.5733 21.1035C15.1858 21.3673 14.8851 21.7399 14.709 22.1742C14.5329 22.6086 14.4892 23.0854 14.5835 23.5445C14.6778 24.0036 14.9059 24.4246 15.239 24.7544C15.572 25.0842 15.9952 25.308 16.4553 25.3977C16.9153 25.4875 17.3916 25.4391 17.8242 25.2586C18.2568 25.0782 18.6264 24.7738 18.8863 24.3838C19.1462 23.9937 19.2849 23.5355 19.285 23.0668ZM27.151 23.0668C27.151 22.4369 26.9007 21.8328 26.4553 21.3874C26.0099 20.942 25.4059 20.6918 24.776 20.6918H24.7522C24.2835 20.6965 23.8267 20.8397 23.4393 21.1035C23.0518 21.3673 22.7511 21.7399 22.575 22.1742C22.3989 22.6086 22.3552 23.0854 22.4495 23.5445C22.5438 24.0036 22.7719 24.4246 23.105 24.7544C23.438 25.0842 23.8612 25.308 24.3213 25.3977C24.7813 25.4875 25.2576 25.4391 25.6902 25.2586C26.1228 25.0782 26.4924 24.7738 26.7523 24.3838C27.0122 23.9937 27.1509 23.5355 27.151 23.0668ZM34.9742 23.0668C34.9742 22.4369 34.724 21.8328 34.2786 21.3874C33.8332 20.942 33.2291 20.6918 32.5992 20.6918H32.5755C32.1068 20.6965 31.6499 20.8397 31.2625 21.1035C30.8751 21.3673 30.5744 21.7399 30.3983 22.1742C30.2221 22.6086 30.1785 23.0854 30.2728 23.5445C30.3671 24.0036 30.5951 24.4246 30.9282 24.7544C31.2613 25.0842 31.6845 25.308 32.1445 25.3977C32.6046 25.4875 33.0809 25.4391 33.5135 25.2586C33.9461 25.0782 34.3156 24.7738 34.5755 24.3838C34.8355 23.9937 34.9742 23.5355 34.9742 23.0668Z" fill="#401D19"/>
</svg>
