<svg width="24" height="24" viewBox="0 0 24 24" fill="none" xmlns="http://www.w3.org/2000/svg">
<path d="M11.6361 19.6942L12.0721 20.3045L11.6361 19.6942ZM11.6945 19.6527L11.2625 19.0396L11.6945 19.6527ZM14.8273 18.6487L14.8321 19.3987L14.8273 18.6487ZM6.93549 20.3099L7.63185 20.5884L6.93549 20.3099ZM8.76433 21.7455L8.3284 21.1352L8.76433 21.7455ZM22.7778 14.6961L23.4975 14.9071L22.7778 14.6961ZM19.0475 18.4264L19.2586 19.1461L19.0475 18.4264ZM4.00305 1.64805L4.34355 2.3163L4.00305 1.64805ZM1.59946 4.05164L2.26772 4.39213L1.59946 4.05164ZM19.9969 1.64805L19.6565 2.3163L19.9969 1.64805ZM22.4005 4.05164L21.7323 4.39213L22.4005 4.05164ZM12.8804 6.07884L13.2821 6.71217H13.2821L12.8804 6.07884ZM16.5713 6.25198L17.1068 5.72687V5.72687L16.5713 6.25198ZM7.42869 6.25198L7.96419 6.77709L7.42869 6.25198ZM11.1196 6.07885L11.5214 5.44552V5.44552L11.1196 6.07885ZM14.2 0.298584H9.8V1.79858H14.2V0.298584ZM0.25 9.84858V14.4998H1.75V9.84858H0.25ZM23.75 11.1512V9.84858H22.25V11.1512H23.75ZM5.14882 19.3986H5.81075V17.8986H5.14882V19.3986ZM9.20026 22.3558L12.0721 20.3045L11.2002 19.0839L8.3284 21.1352L9.20026 22.3558ZM14.8989 19.3986H15.5026V17.8986H14.8989V19.3986ZM12.0721 20.3045C12.1021 20.283 12.1145 20.2742 12.1265 20.2658L11.2625 19.0396C11.2456 19.0514 11.2287 19.0635 11.2002 19.0839L12.0721 20.3045ZM14.8989 17.8986C14.8639 17.8986 14.8431 17.8986 14.8225 17.8987L14.8321 19.3987C14.8468 19.3986 14.862 19.3986 14.8989 19.3986V17.8986ZM12.1265 20.2658C12.9188 19.7074 13.8629 19.4049 14.8321 19.3987L14.8225 17.8987C13.5472 17.9069 12.305 18.305 11.2625 19.0396L12.1265 20.2658ZM5.81075 19.3986C6.13716 19.3986 6.36036 19.7283 6.23913 20.0313L7.63185 20.5884C8.14719 19.3 7.19836 17.8986 5.81075 17.8986V19.3986ZM6.23913 20.0313C5.51163 21.8501 7.60625 23.4944 9.20026 22.3558L8.3284 21.1352C7.95344 21.403 7.46071 21.0162 7.63185 20.5884L6.23913 20.0313ZM22.25 11.1512C22.25 13.0621 22.2424 13.8567 22.0581 14.4851L23.4975 14.9071C23.7576 14.0199 23.75 12.9565 23.75 11.1512H22.25ZM15.5026 19.3986C17.3079 19.3986 18.3714 19.4062 19.2586 19.1461L18.8365 17.7067C18.2081 17.8909 17.4135 17.8986 15.5026 17.8986V19.3986ZM22.0581 14.4851C21.6029 16.0375 20.3889 17.2515 18.8365 17.7067L19.2586 19.1461C21.3012 18.5471 22.8986 16.9498 23.4975 14.9071L22.0581 14.4851ZM0.25 14.4998C0.25 17.2053 2.44328 19.3986 5.14882 19.3986V17.8986C3.2717 17.8986 1.75 16.3769 1.75 14.4998H0.25ZM9.8 0.298584C8.27223 0.298584 7.0813 0.298001 6.12654 0.376008C5.16302 0.45473 4.37417 0.617211 3.66256 0.979793L4.34355 2.3163C4.80845 2.07942 5.37793 1.94217 6.24868 1.87103C7.1282 1.79917 8.24748 1.79858 9.8 1.79858V0.298584ZM1.75 9.84858C1.75 8.29606 1.75058 7.17678 1.82244 6.29727C1.89359 5.42651 2.03084 4.85704 2.26772 4.39213L0.931209 3.71114C0.568627 4.42275 0.406146 5.2116 0.327424 6.17512C0.249417 7.12988 0.25 8.32081 0.25 9.84858H1.75ZM3.66256 0.979793C2.48655 1.579 1.53042 2.53513 0.931209 3.71114L2.26772 4.39213C2.72312 3.49836 3.44978 2.7717 4.34355 2.3163L3.66256 0.979793ZM14.2 1.79858C15.7525 1.79858 16.8718 1.79917 17.7513 1.87103C18.6221 1.94217 19.1915 2.07942 19.6565 2.3163L20.3374 0.979793C19.6258 0.617211 18.837 0.45473 17.8735 0.376008C16.9187 0.298001 15.7278 0.298584 14.2 0.298584V1.79858ZM23.75 9.84858C23.75 8.32081 23.7506 7.12988 23.6726 6.17512C23.5939 5.2116 23.4314 4.42275 23.0688 3.71114L21.7323 4.39213C21.9692 4.85704 22.1064 5.42651 22.1776 6.29727C22.2494 7.17678 22.25 8.29606 22.25 9.84858H23.75ZM19.6565 2.3163C20.5502 2.7717 21.2769 3.49836 21.7323 4.39213L23.0688 3.71114C22.4696 2.53513 21.5135 1.579 20.3374 0.979793L19.6565 2.3163ZM13.2821 6.71217C13.691 6.4528 14.1708 6.23815 14.6444 6.20348C15.0804 6.17156 15.5544 6.28612 16.0358 6.77708L17.1068 5.72687C16.3044 4.90862 15.3932 4.64465 14.5348 4.70749C13.714 4.76758 12.9903 5.12097 12.4786 5.44552L13.2821 6.71217ZM16.0358 6.77708C16.6157 7.36842 16.8138 8.09245 16.7328 8.91061C16.6496 9.75176 16.2683 10.6771 15.6967 11.5572C15.1282 12.4326 14.4016 13.2163 13.6897 13.7738C12.9453 14.3569 12.3385 14.5986 12 14.5986V16.0986C12.8578 16.0986 13.8015 15.5916 14.6147 14.9547C15.4604 14.2923 16.2985 13.3845 16.9547 12.3742C17.6078 11.3687 18.1112 10.2141 18.2255 9.05829C18.3422 7.87946 18.0507 6.68946 17.1068 5.72687L16.0358 6.77708ZM12 14.5986C11.6615 14.5986 11.0547 14.3569 10.3103 13.7738C9.59843 13.2163 8.8718 12.4326 8.30328 11.5572C7.73168 10.6771 7.35039 9.75176 7.26717 8.91061C7.18623 8.09245 7.38432 7.36843 7.96419 6.77709L6.89319 5.72687C5.94928 6.68946 5.65783 7.87947 5.77446 9.05829C5.88881 10.2141 6.39222 11.3687 7.04532 12.3742C7.70149 13.3845 8.53958 14.2923 9.38534 14.9547C10.1985 15.5916 11.1422 16.0986 12 16.0986V14.5986ZM7.96419 6.77709C8.44563 6.28613 8.91962 6.17157 9.35563 6.20349C9.82917 6.23816 10.309 6.45281 10.7179 6.71217L11.5214 5.44552C11.0097 5.12097 10.286 4.76758 9.46514 4.70749C8.60677 4.64466 7.69556 4.90863 6.89319 5.72687L7.96419 6.77709ZM12.4786 5.44552C12.2037 5.61989 11.7962 5.61989 11.5214 5.44552L10.7179 6.71217C11.4832 7.19767 12.5167 7.19767 13.2821 6.71217L12.4786 5.44552Z" fill="#2B2A28"/>
</svg>
