<svg width="24" height="24" viewBox="0 0 24 24" fill="none" xmlns="http://www.w3.org/2000/svg">
<path d="M0.895508 9.47076C0.895508 7.76525 2.2781 6.38266 3.9836 6.38266C5.68911 6.38266 7.0717 7.76525 7.0717 9.47076V19.3527C7.0717 21.0582 5.68911 22.4408 3.9836 22.4408C2.2781 22.4408 0.895508 21.0582 0.895508 19.3527V9.47076Z" stroke="#2B2A28" stroke-width="1.5"/>
<path d="M11.4882 2.91158L8.73295 7.38885C7.9932 8.59094 7.62332 9.19199 7.39966 9.85065C7.33144 10.0516 7.27362 10.2559 7.22642 10.4627C7.0717 11.1409 7.0717 11.8466 7.0717 13.2581V17.4998C7.0717 20.2286 9.28384 22.4408 12.0127 22.4408H15.607C17.9464 22.4408 20.0849 21.119 21.1311 19.0266L22.5498 16.1893C23.9513 13.3863 21.9131 10.0884 18.7793 10.0884H17.9273C15.7916 10.0884 14.1584 8.18471 14.4831 6.07385L14.7833 4.12245C14.9502 3.03765 14.1109 2.05933 13.0134 2.05933C12.3915 2.05933 11.8141 2.38195 11.4882 2.91158Z" stroke="#2B2A28" stroke-width="1.5"/>
</svg>
