<svg width="24" height="24" viewBox="0 0 24 24" fill="none" xmlns="http://www.w3.org/2000/svg">
<g clip-path="url(#clip0_2169_20433)">
<path d="M6.5 14.2C7.23333 15.6143 9.36 17.5 12 17.5C14.64 17.5 16.7667 15.6143 17.5 14.2M23 12C23 18.0751 18.0751 23 12 23C5.92487 23 1 18.0751 1 12C1 5.92487 5.92487 1 12 1C18.0751 1 23 5.92487 23 12Z" stroke="#2B2A28" stroke-width="1.5" stroke-linecap="round"/>
<path d="M9.80059 7.6C9.80059 8.20751 9.3081 8.7 8.70059 8.7C8.09307 8.7 7.60059 8.20751 7.60059 7.6C7.60059 6.99249 8.09307 6.5 8.70059 6.5C9.3081 6.5 9.80059 6.99249 9.80059 7.6Z" fill="#2B2A28"/>
<path d="M16.4006 7.6C16.4006 8.20751 15.9081 8.7 15.3006 8.7C14.6931 8.7 14.2006 8.20751 14.2006 7.6C14.2006 6.99249 14.6931 6.5 15.3006 6.5C15.9081 6.5 16.4006 6.99249 16.4006 7.6Z" fill="#2B2A28"/>
</g>
<defs>
<clipPath id="clip0_2169_20433">
<rect width="24" height="24" fill="white"/>
</clipPath>
</defs>
</svg>
